<?xml version="1.0" encoding="UTF-8"?>
<svg xmlns="http://www.w3.org/2000/svg" width="296" height="296" viewBox="0 0 296 296">
  <rect x="0" y="0" width="296" height="296" rx="22" fill="#ffffff" stroke="#e7e2f2" stroke-width="1" />
  <g transform="translate(18, 18)"><defs xmlns="http://www.w3.org/2000/svg"><linearGradient id="header-gradient" x1="0%" y1="0%" x2="100%" y2="0%"><stop offset="0%" stop-color="#ffd700"/><stop offset="100%" stop-color="#8b5cf6"/></linearGradient><clipPath id="clip-path-dot-color"><path d="M 0 77v 7h 7a 7 7, 0, 0, 0, -7 -7" transform="rotate(-90,3.5,80.5)"/><path d="M 0 84v 7h 3.5a 3.5 3.5, 0, 0, 0, 0 -7" transform="rotate(90,3.5,87.5)"/><path d="M 0 98v 7h 7a 7 7, 0, 0, 0, -7 -7" transform="rotate(-90,3.5,101.5)"/><path d="M 0 105v 7h 7a 7 7, 0, 0, 0, -7 -7" transform="rotate(180,3.5,108.5)"/><path d="M 0 154v 7h 7a 7 7, 0, 0, 0, -7 -7" transform="rotate(-90,3.5,157.5)"/><path d="M 0 161v 7h 3.5a 3.5 3.5, 0, 0, 0, 0 -7" transform="rotate(90,3.5,164.5)"/><path d="M 0 189v 7h 3.5a 3.5 3.5, 0, 0, 0, 0 -7" transform="rotate(-90,3.5,192.5)"/><path d="M 0 196v 7h 3.5a 3.5 3.5, 0, 0, 0, 0 -7" transform="rotate(90,3.5,199.5)"/><circle cx="10.5" cy="59.5" r="3.5" transform="rotate(0,10.5,59.5)"/><path d="M 7 77v 7h 3.5a 3.5 3.5, 0, 0, 0, 0 -7" transform="rotate(0,10.5,80.5)"/><path d="M 7 91v 7h 7a 7 7, 0, 0, 0, -7 -7" transform="rotate(-90,10.5,94.5)"/><rect x="7" y="98" width="7" height="7" transform="rotate(0,10.5,101.5)"/><rect x="7" y="105" width="7" height="7" transform="rotate(0,10.5,108.5)"/><path d="M 7 112v 7h 3.5a 3.5 3.5, 0, 0, 0, 0 -7" transform="rotate(90,10.5,115.5)"/><path d="M 7 133v 7h 3.5a 3.5 3.5, 0, 0, 0, 0 -7" transform="rotate(180,10.5,136.5)"/><path d="M 7 147v 7h 7a 7 7, 0, 0, 0, -7 -7" transform="rotate(-90,10.5,150.5)"/><path d="M 7 154v 7h 7a 7 7, 0, 0, 0, -7 -7" transform="rotate(90,10.5,157.5)"/><path d="M 14 84v 7h 3.5a 3.5 3.5, 0, 0, 0, 0 -7" transform="rotate(-90,17.5,87.5)"/><rect x="14" y="91" width="7" height="7" transform="rotate(0,17.5,94.5)"/><rect x="14" y="98" width="7" height="7" transform="rotate(0,17.5,101.5)"/><rect x="14" y="133" width="7" height="7" transform="rotate(0,17.5,136.5)"/><path d="M 14 147v 7h 3.5a 3.5 3.5, 0, 0, 0, 0 -7" transform="rotate(0,17.5,150.5)"/><path d="M 14 196v 7h 3.5a 3.5 3.5, 0, 0, 0, 0 -7" transform="rotate(180,17.5,199.5)"/><path d="M 21 63v 7h 3.5a 3.5 3.5, 0, 0, 0, 0 -7" transform="rotate(-90,24.5,66.5)"/><rect x="21" y="70" width="7" height="7" transform="rotate(0,24.5,73.5)"/><path d="M 21 77v 7h 7a 7 7, 0, 0, 0, -7 -7" transform="rotate(180,24.5,80.5)"/><path d="M 21 91v 7h 7a 7 7, 0, 0, 0, -7 -7" transform="rotate(0,24.5,94.5)"/><path d="M 21 98v 7h 7a 7 7, 0, 0, 0, -7 -7" transform="rotate(90,24.5,101.5)"/><path d="M 21 119v 7h 3.5a 3.5 3.5, 0, 0, 0, 0 -7" transform="rotate(180,24.5,122.5)"/><rect x="21" y="133" width="7" height="7" transform="rotate(0,24.5,136.5)"/><path d="M 21 140v 7h 7a 7 7, 0, 0, 0, -7 -7" transform="rotate(180,24.5,143.5)"/><circle cx="24.5" cy="157.5" r="3.5" transform="rotate(0,24.5,157.5)"/><path d="M 21 168v 7h 7a 7 7, 0, 0, 0, -7 -7" transform="rotate(-90,24.5,171.5)"/><rect x="21" y="175" width="7" height="7" transform="rotate(0,24.5,178.5)"/><rect x="21" y="182" width="7" height="7" transform="rotate(0,24.5,185.5)"/><rect x="21" y="189" width="7" height="7" transform="rotate(0,24.5,192.5)"/><path d="M 21 196v 7h 7a 7 7, 0, 0, 0, -7 -7" transform="rotate(90,24.5,199.5)"/><path d="M 28 77v 7h 7a 7 7, 0, 0, 0, -7 -7" transform="rotate(0,31.5,80.5)"/><path d="M 28 84v 7h 7a 7 7, 0, 0, 0, -7 -7" transform="rotate(180,31.5,87.5)"/><circle cx="31.5" cy="108.5" r="3.5" transform="rotate(0,31.5,108.5)"/><path d="M 28 119v 7h 3.5a 3.5 3.5, 0, 0, 0, 0 -7" transform="rotate(0,31.5,122.5)"/><path d="M 28 133v 7h 7a 7 7, 0, 0, 0, -7 -7" transform="rotate(0,31.5,136.5)"/><rect x="28" y="140" width="7" height="7" transform="rotate(0,31.5,143.5)"/><path d="M 28 161v 7h 7a 7 7, 0, 0, 0, -7 -7" transform="rotate(-90,31.5,164.5)"/><rect x="28" y="168" width="7" height="7" transform="rotate(0,31.5,171.5)"/><rect x="28" y="175" width="7" height="7" transform="rotate(0,31.5,178.5)"/><rect x="28" y="182" width="7" height="7" transform="rotate(0,31.5,185.5)"/><path d="M 28 189v 7h 7a 7 7, 0, 0, 0, -7 -7" transform="rotate(90,31.5,192.5)"/><path d="M 35 56v 7h 3.5a 3.5 3.5, 0, 0, 0, 0 -7" transform="rotate(180,38.5,59.5)"/><rect x="35" y="84" width="7" height="7" transform="rotate(0,38.5,87.5)"/><rect x="35" y="91" width="7" height="7" transform="rotate(0,38.5,94.5)"/><path d="M 35 98v 7h 7a 7 7, 0, 0, 0, -7 -7" transform="rotate(180,38.5,101.5)"/><path d="M 35 112v 7h 3.5a 3.5 3.5, 0, 0, 0, 0 -7" transform="rotate(180,38.5,115.5)"/><path d="M 35 126v 7h 3.5a 3.5 3.5, 0, 0, 0, 0 -7" transform="rotate(180,38.5,129.5)"/><rect x="35" y="140" width="7" height="7" transform="rotate(0,38.5,143.5)"/><rect x="35" y="147" width="7" height="7" transform="rotate(0,38.5,150.5)"/><rect x="35" y="154" width="7" height="7" transform="rotate(0,38.5,157.5)"/><rect x="35" y="161" width="7" height="7" transform="rotate(0,38.5,164.5)"/><rect x="35" y="168" width="7" height="7" transform="rotate(0,38.5,171.5)"/><rect x="35" y="182" width="7" height="7" transform="rotate(0,38.5,185.5)"/><path d="M 35 196v 7h 3.5a 3.5 3.5, 0, 0, 0, 0 -7" transform="rotate(180,38.5,199.5)"/><rect x="42" y="56" width="7" height="7" transform="rotate(0,45.5,59.5)"/><path d="M 42 70v 7h 3.5a 3.5 3.5, 0, 0, 0, 0 -7" transform="rotate(180,45.5,73.5)"/><rect x="42" y="84" width="7" height="7" transform="rotate(0,45.5,87.5)"/><path d="M 42 98v 7h 3.5a 3.5 3.5, 0, 0, 0, 0 -7" transform="rotate(0,45.5,101.5)"/><path d="M 42 112v 7h 3.5a 3.5 3.5, 0, 0, 0, 0 -7" transform="rotate(0,45.5,115.5)"/><path d="M 42 126v 7h 3.5a 3.5 3.5, 0, 0, 0, 0 -7" transform="rotate(0,45.5,129.5)"/><rect x="42" y="140" width="7" height="7" transform="rotate(0,45.5,143.5)"/><rect x="42" y="154" width="7" height="7" transform="rotate(0,45.5,157.5)"/><rect x="42" y="168" width="7" height="7" transform="rotate(0,45.5,171.5)"/><rect x="42" y="182" width="7" height="7" transform="rotate(0,45.5,185.5)"/><path d="M 42 196v 7h 3.5a 3.5 3.5, 0, 0, 0, 0 -7" transform="rotate(0,45.5,199.5)"/><path d="M 49 56v 7h 7a 7 7, 0, 0, 0, -7 -7" transform="rotate(0,52.5,59.5)"/><rect x="49" y="63" width="7" height="7" transform="rotate(0,52.5,66.5)"/><path d="M 49 70v 7h 7a 7 7, 0, 0, 0, -7 -7" transform="rotate(90,52.5,73.5)"/><path d="M 49 84v 7h 3.5a 3.5 3.5, 0, 0, 0, 0 -7" transform="rotate(0,52.5,87.5)"/><path d="M 49 119v 7h 3.5a 3.5 3.5, 0, 0, 0, 0 -7" transform="rotate(180,52.5,122.5)"/><path d="M 49 140v 7h 3.5a 3.5 3.5, 0, 0, 0, 0 -7" transform="rotate(0,52.5,143.5)"/><rect x="49" y="154" width="7" height="7" transform="rotate(0,52.5,157.5)"/><rect x="49" y="168" width="7" height="7" transform="rotate(0,52.5,171.5)"/><rect x="49" y="182" width="7" height="7" transform="rotate(0,52.5,185.5)"/><path d="M 56 28v 7h 3.5a 3.5 3.5, 0, 0, 0, 0 -7" transform="rotate(-90,59.5,31.5)"/><rect x="56" y="35" width="7" height="7" transform="rotate(0,59.5,38.5)"/><rect x="56" y="42" width="7" height="7" transform="rotate(0,59.5,45.5)"/><path d="M 56 49v 7h 7a 7 7, 0, 0, 0, -7 -7" transform="rotate(180,59.5,52.5)"/><circle cx="59.5" cy="80.5" r="3.5" transform="rotate(0,59.5,80.5)"/><circle cx="59.5" cy="94.5" r="3.5" transform="rotate(0,59.5,94.5)"/><path d="M 56 105v 7h 7a 7 7, 0, 0, 0, -7 -7" transform="rotate(-90,59.5,108.5)"/><rect x="56" y="112" width="7" height="7" transform="rotate(0,59.5,115.5)"/><rect x="56" y="119" width="7" height="7" transform="rotate(0,59.5,122.5)"/><path d="M 56 126v 7h 7a 7 7, 0, 0, 0, -7 -7" transform="rotate(180,59.5,129.5)"/><rect x="56" y="154" width="7" height="7" transform="rotate(0,59.5,157.5)"/><path d="M 56 168v 7h 7a 7 7, 0, 0, 0, -7 -7" transform="rotate(0,59.5,171.5)"/><rect x="56" y="175" width="7" height="7" transform="rotate(0,59.5,178.5)"/><rect x="56" y="182" width="7" height="7" transform="rotate(0,59.5,185.5)"/><rect x="56" y="189" width="7" height="7" transform="rotate(0,59.5,192.5)"/><path d="M 56 196v 7h 7a 7 7, 0, 0, 0, -7 -7" transform="rotate(180,59.5,199.5)"/><path d="M 56 210v 7h 3.5a 3.5 3.5, 0, 0, 0, 0 -7" transform="rotate(-90,59.5,213.5)"/><path d="M 56 217v 7h 3.5a 3.5 3.5, 0, 0, 0, 0 -7" transform="rotate(90,59.5,220.5)"/><circle cx="59.5" cy="248.5" r="3.5" transform="rotate(0,59.5,248.5)"/><path d="M 63 0v 7h 3.5a 3.5 3.5, 0, 0, 0, 0 -7" transform="rotate(-90,66.5,3.5)"/><path d="M 63 7v 7h 7a 7 7, 0, 0, 0, -7 -7" transform="rotate(180,66.5,10.5)"/><circle cx="66.5" cy="24.5" r="3.5" transform="rotate(0,66.5,24.5)"/><path d="M 63 49v 7h 7a 7 7, 0, 0, 0, -7 -7" transform="rotate(0,66.5,52.5)"/><path d="M 63 56v 7h 3.5a 3.5 3.5, 0, 0, 0, 0 -7" transform="rotate(90,66.5,59.5)"/><circle cx="66.5" cy="73.5" r="3.5" transform="rotate(0,66.5,73.5)"/><circle cx="66.5" cy="87.5" r="3.5" transform="rotate(0,66.5,87.5)"/><path d="M 63 105v 7h 3.5a 3.5 3.5, 0, 0, 0, 0 -7" transform="rotate(0,66.5,108.5)"/><path d="M 63 119v 7h 7a 7 7, 0, 0, 0, -7 -7" transform="rotate(0,66.5,122.5)"/><rect x="63" y="126" width="7" height="7" transform="rotate(0,66.5,129.5)"/><path d="M 63 140v 7h 3.5a 3.5 3.5, 0, 0, 0, 0 -7" transform="rotate(180,66.5,143.5)"/><rect x="63" y="154" width="7" height="7" transform="rotate(0,66.5,157.5)"/><path d="M 63 161v 7h 3.5a 3.5 3.5, 0, 0, 0, 0 -7" transform="rotate(90,66.5,164.5)"/><rect x="63" y="182" width="7" height="7" transform="rotate(0,66.5,185.5)"/><rect x="63" y="189" width="7" height="7" transform="rotate(0,66.5,192.5)"/><rect x="63" y="196" width="7" height="7" transform="rotate(0,66.5,199.5)"/><path d="M 63 224v 7h 3.5a 3.5 3.5, 0, 0, 0, 0 -7" transform="rotate(-90,66.5,227.5)"/><path d="M 63 231v 7h 3.5a 3.5 3.5, 0, 0, 0, 0 -7" transform="rotate(90,66.5,234.5)"/><path d="M 70 7v 7h 3.5a 3.5 3.5, 0, 0, 0, 0 -7" transform="rotate(0,73.5,10.5)"/><path d="M 70 28v 7h 7a 7 7, 0, 0, 0, -7 -7" transform="rotate(-90,73.5,31.5)"/><rect x="70" y="35" width="7" height="7" transform="rotate(0,73.5,38.5)"/><path d="M 70 42v 7h 3.5a 3.5 3.5, 0, 0, 0, 0 -7" transform="rotate(90,73.5,45.5)"/><circle cx="73.5" cy="66.5" r="3.5" transform="rotate(0,73.5,66.5)"/><path d="M 70 98v 7h 3.5a 3.5 3.5, 0, 0, 0, 0 -7" transform="rotate(180,73.5,101.5)"/><path d="M 70 112v 7h 3.5a 3.5 3.5, 0, 0, 0, 0 -7" transform="rotate(180,73.5,115.5)"/><path d="M 70 126v 7h 7a 7 7, 0, 0, 0, -7 -7" transform="rotate(0,73.5,129.5)"/><rect x="70" y="133" width="7" height="7" transform="rotate(0,73.5,136.5)"/><rect x="70" y="140" width="7" height="7" transform="rotate(0,73.5,143.5)"/><rect x="70" y="147" width="7" height="7" transform="rotate(0,73.5,150.5)"/><path d="M 70 154v 7h 7a 7 7, 0, 0, 0, -7 -7" transform="rotate(90,73.5,157.5)"/><path d="M 70 175v 7h 3.5a 3.5 3.5, 0, 0, 0, 0 -7" transform="rotate(-90,73.5,178.5)"/><rect x="70" y="182" width="7" height="7" transform="rotate(0,73.5,185.5)"/><rect x="70" y="189" width="7" height="7" transform="rotate(0,73.5,192.5)"/><rect x="70" y="196" width="7" height="7" transform="rotate(0,73.5,199.5)"/><path d="M 70 203v 7h 7a 7 7, 0, 0, 0, -7 -7" transform="rotate(180,73.5,206.5)"/><path d="M 70 238v 7h 3.5a 3.5 3.5, 0, 0, 0, 0 -7" transform="rotate(180,73.5,241.5)"/><path d="M 77 0v 7h 3.5a 3.5 3.5, 0, 0, 0, 0 -7" transform="rotate(180,80.5,3.5)"/><path d="M 77 14v 7h 3.5a 3.5 3.5, 0, 0, 0, 0 -7" transform="rotate(-90,80.5,17.5)"/><rect x="77" y="21" width="7" height="7" transform="rotate(0,80.5,24.5)"/><path d="M 77 28v 7h 7a 7 7, 0, 0, 0, -7 -7" transform="rotate(90,80.5,31.5)"/><circle cx="80.5" cy="87.5" r="3.5" transform="rotate(0,80.5,87.5)"/><path d="M 77 98v 7h 3.5a 3.5 3.5, 0, 0, 0, 0 -7" transform="rotate(0,80.5,101.5)"/><rect x="77" y="112" width="7" height="7" transform="rotate(0,80.5,115.5)"/><path d="M 77 119v 7h 3.5a 3.5 3.5, 0, 0, 0, 0 -7" transform="rotate(90,80.5,122.5)"/><rect x="77" y="140" width="7" height="7" transform="rotate(0,80.5,143.5)"/><path d="M 77 161v 7h 3.5a 3.5 3.5, 0, 0, 0, 0 -7" transform="rotate(180,80.5,164.5)"/><path d="M 77 182v 7h 7a 7 7, 0, 0, 0, -7 -7" transform="rotate(0,80.5,185.5)"/><rect x="77" y="189" width="7" height="7" transform="rotate(0,80.5,192.5)"/><rect x="77" y="203" width="7" height="7" transform="rotate(0,80.5,206.5)"/><path d="M 77 217v 7h 3.5a 3.5 3.5, 0, 0, 0, 0 -7" transform="rotate(180,80.5,220.5)"/><rect x="77" y="238" width="7" height="7" transform="rotate(0,80.5,241.5)"/><rect x="77" y="245" width="7" height="7" transform="rotate(0,80.5,248.5)"/><path d="M 77 252v 7h 3.5a 3.5 3.5, 0, 0, 0, 0 -7" transform="rotate(90,80.5,255.5)"/><path d="M 84 0v 7h 7a 7 7, 0, 0, 0, -7 -7" transform="rotate(0,87.5,3.5)"/><path d="M 84 7v 7h 3.5a 3.5 3.5, 0, 0, 0, 0 -7" transform="rotate(90,87.5,10.5)"/><path d="M 84 35v 7h 7a 7 7, 0, 0, 0, -7 -7" transform="rotate(-90,87.5,38.5)"/><rect x="84" y="42" width="7" height="7" transform="rotate(0,87.5,45.5)"/><path d="M 84 49v 7h 7a 7 7, 0, 0, 0, -7 -7" transform="rotate(180,87.5,52.5)"/><circle cx="87.5" cy="66.5" r="3.5" transform="rotate(0,87.5,66.5)"/><path d="M 84 112v 7h 3.5a 3.5 3.5, 0, 0, 0, 0 -7" transform="rotate(0,87.5,115.5)"/><path d="M 84 140v 7h 7a 7 7, 0, 0, 0, -7 -7" transform="rotate(0,87.5,143.5)"/><rect x="84" y="147" width="7" height="7" transform="rotate(0,87.5,150.5)"/><rect x="84" y="154" width="7" height="7" transform="rotate(0,87.5,157.5)"/><path d="M 84 161v 7h 7a 7 7, 0, 0, 0, -7 -7" transform="rotate(90,87.5,164.5)"/><rect x="84" y="189" width="7" height="7" transform="rotate(0,87.5,192.5)"/><rect x="84" y="203" width="7" height="7" transform="rotate(0,87.5,206.5)"/><rect x="84" y="210" width="7" height="7" transform="rotate(0,87.5,213.5)"/><path d="M 84 217v 7h 7a 7 7, 0, 0, 0, -7 -7" transform="rotate(90,87.5,220.5)"/><path d="M 84 231v 7h 3.5a 3.5 3.5, 0, 0, 0, 0 -7" transform="rotate(-90,87.5,234.5)"/><rect x="84" y="238" width="7" height="7" transform="rotate(0,87.5,241.5)"/><rect x="84" y="245" width="7" height="7" transform="rotate(0,87.5,248.5)"/><path d="M 91 14v 7h 7a 7 7, 0, 0, 0, -7 -7" transform="rotate(-90,94.5,17.5)"/><rect x="91" y="21" width="7" height="7" transform="rotate(0,94.5,24.5)"/><rect x="91" y="28" width="7" height="7" transform="rotate(0,94.5,31.5)"/><rect x="91" y="35" width="7" height="7" transform="rotate(0,94.5,38.5)"/><rect x="91" y="49" width="7" height="7" transform="rotate(0,94.5,52.5)"/><path d="M 91 56v 7h 7a 7 7, 0, 0, 0, -7 -7" transform="rotate(180,94.5,59.5)"/><path d="M 91 70v 7h 3.5a 3.5 3.5, 0, 0, 0, 0 -7" transform="rotate(180,94.5,73.5)"/><path d="M 91 91v 7h 3.5a 3.5 3.5, 0, 0, 0, 0 -7" transform="rotate(-90,94.5,94.5)"/><path d="M 91 98v 7h 7a 7 7, 0, 0, 0, -7 -7" transform="rotate(180,94.5,101.5)"/><circle cx="94.5" cy="122.5" r="3.5" transform="rotate(0,94.5,122.5)"/><circle cx="94.5" cy="136.5" r="3.5" transform="rotate(0,94.5,136.5)"/><path d="M 91 147v 7h 3.5a 3.5 3.5, 0, 0, 0, 0 -7" transform="rotate(0,94.5,150.5)"/><path d="M 91 168v 7h 3.5a 3.5 3.5, 0, 0, 0, 0 -7" transform="rotate(-90,94.5,171.5)"/><path d="M 91 175v 7h 7a 7 7, 0, 0, 0, -7 -7" transform="rotate(180,94.5,178.5)"/><rect x="91" y="189" width="7" height="7" transform="rotate(0,94.5,192.5)"/><path d="M 91 203v 7h 3.5a 3.5 3.5, 0, 0, 0, 0 -7" transform="rotate(0,94.5,206.5)"/><circle cx="94.5" cy="227.5" r="3.5" transform="rotate(0,94.5,227.5)"/><rect x="91" y="238" width="7" height="7" transform="rotate(0,94.5,241.5)"/><path d="M 91 245v 7h 7a 7 7, 0, 0, 0, -7 -7" transform="rotate(90,94.5,248.5)"/><rect x="98" y="14" width="7" height="7" transform="rotate(0,101.5,17.5)"/><rect x="98" y="28" width="7" height="7" transform="rotate(0,101.5,31.5)"/><rect x="98" y="35" width="7" height="7" transform="rotate(0,101.5,38.5)"/><rect x="98" y="42" width="7" height="7" transform="rotate(0,101.5,45.5)"/><rect x="98" y="49" width="7" height="7" transform="rotate(0,101.5,52.5)"/><rect x="98" y="56" width="7" height="7" transform="rotate(0,101.5,59.5)"/><rect x="98" y="63" width="7" height="7" transform="rotate(0,101.5,66.5)"/><rect x="98" y="70" width="7" height="7" transform="rotate(0,101.5,73.5)"/><rect x="98" y="77" width="7" height="7" transform="rotate(0,101.5,80.5)"/><path d="M 98 84v 7h 7a 7 7, 0, 0, 0, -7 -7" transform="rotate(180,101.5,87.5)"/><path d="M 98 98v 7h 7a 7 7, 0, 0, 0, -7 -7" transform="rotate(0,101.5,101.5)"/><path d="M 98 105v 7h 7a 7 7, 0, 0, 0, -7 -7" transform="rotate(180,101.5,108.5)"/><path d="M 98 126v 7h 3.5a 3.5 3.5, 0, 0, 0, 0 -7" transform="rotate(180,101.5,129.5)"/><path d="M 98 154v 7h 7a 7 7, 0, 0, 0, -7 -7" transform="rotate(-90,101.5,157.5)"/><path d="M 98 161v 7h 7a 7 7, 0, 0, 0, -7 -7" transform="rotate(180,101.5,164.5)"/><path d="M 98 175v 7h 7a 7 7, 0, 0, 0, -7 -7" transform="rotate(0,101.5,178.5)"/><rect x="98" y="182" width="7" height="7" transform="rotate(0,101.5,185.5)"/><rect x="98" y="189" width="7" height="7" transform="rotate(0,101.5,192.5)"/><path d="M 98 196v 7h 7a 7 7, 0, 0, 0, -7 -7" transform="rotate(180,101.5,199.5)"/><path d="M 98 231v 7h 3.5a 3.5 3.5, 0, 0, 0, 0 -7" transform="rotate(-90,101.5,234.5)"/><rect x="98" y="238" width="7" height="7" transform="rotate(0,101.5,241.5)"/><path d="M 105 14v 7h 7a 7 7, 0, 0, 0, -7 -7" transform="rotate(0,108.5,17.5)"/><rect x="105" y="21" width="7" height="7" transform="rotate(0,108.5,24.5)"/><rect x="105" y="28" width="7" height="7" transform="rotate(0,108.5,31.5)"/><rect x="105" y="35" width="7" height="7" transform="rotate(0,108.5,38.5)"/><path d="M 105 56v 7h 7a 7 7, 0, 0, 0, -7 -7" transform="rotate(0,108.5,59.5)"/><rect x="105" y="63" width="7" height="7" transform="rotate(0,108.5,66.5)"/><path d="M 105 70v 7h 7a 7 7, 0, 0, 0, -7 -7" transform="rotate(90,108.5,73.5)"/><path d="M 105 84v 7h 7a 7 7, 0, 0, 0, -7 -7" transform="rotate(0,108.5,87.5)"/><path d="M 105 91v 7h 3.5a 3.5 3.5, 0, 0, 0, 0 -7" transform="rotate(90,108.5,94.5)"/><rect x="105" y="105" width="7" height="7" transform="rotate(0,108.5,108.5)"/><path d="M 105 119v 7h 7a 7 7, 0, 0, 0, -7 -7" transform="rotate(-90,108.5,122.5)"/><rect x="105" y="126" width="7" height="7" transform="rotate(0,108.5,129.5)"/><path d="M 105 133v 7h 7a 7 7, 0, 0, 0, -7 -7" transform="rotate(180,108.5,136.5)"/><rect x="105" y="154" width="7" height="7" transform="rotate(0,108.5,157.5)"/><rect x="105" y="161" width="7" height="7" transform="rotate(0,108.5,164.5)"/><path d="M 105 168v 7h 3.5a 3.5 3.5, 0, 0, 0, 0 -7" transform="rotate(90,108.5,171.5)"/><path d="M 105 182v 7h 3.5a 3.5 3.5, 0, 0, 0, 0 -7" transform="rotate(0,108.5,185.5)"/><rect x="105" y="196" width="7" height="7" transform="rotate(0,108.5,199.5)"/><path d="M 105 203v 7h 7a 7 7, 0, 0, 0, -7 -7" transform="rotate(180,108.5,206.5)"/><path d="M 105 217v 7h 3.5a 3.5 3.5, 0, 0, 0, 0 -7" transform="rotate(180,108.5,220.5)"/><rect x="105" y="238" width="7" height="7" transform="rotate(0,108.5,241.5)"/><path d="M 112 0v 7h 7a 7 7, 0, 0, 0, -7 -7" transform="rotate(-90,115.5,3.5)"/><path d="M 112 7v 7h 3.5a 3.5 3.5, 0, 0, 0, 0 -7" transform="rotate(90,115.5,10.5)"/><path d="M 112 28v 7h 7a 7 7, 0, 0, 0, -7 -7" transform="rotate(0,115.5,31.5)"/><rect x="112" y="35" width="7" height="7" transform="rotate(0,115.5,38.5)"/><path d="M 112 42v 7h 3.5a 3.5 3.5, 0, 0, 0, 0 -7" transform="rotate(90,115.5,45.5)"/><path d="M 112 105v 7h 7a 7 7, 0, 0, 0, -7 -7" transform="rotate(0,115.5,108.5)"/><rect x="112" y="112" width="7" height="7" transform="rotate(0,115.5,115.5)"/><rect x="112" y="119" width="7" height="7" transform="rotate(0,115.5,122.5)"/><rect x="112" y="126" width="7" height="7" transform="rotate(0,115.5,129.5)"/><path d="M 112 133v 7h 7a 7 7, 0, 0, 0, -7 -7" transform="rotate(90,115.5,136.5)"/><path d="M 112 147v 7h 3.5a 3.5 3.5, 0, 0, 0, 0 -7" transform="rotate(-90,115.5,150.5)"/><rect x="112" y="154" width="7" height="7" transform="rotate(0,115.5,157.5)"/><rect x="112" y="196" width="7" height="7" transform="rotate(0,115.5,199.5)"/><rect x="112" y="203" width="7" height="7" transform="rotate(0,115.5,206.5)"/><rect x="112" y="210" width="7" height="7" transform="rotate(0,115.5,213.5)"/><path d="M 112 217v 7h 7a 7 7, 0, 0, 0, -7 -7" transform="rotate(90,115.5,220.5)"/><path d="M 112 231v 7h 7a 7 7, 0, 0, 0, -7 -7" transform="rotate(-90,115.5,234.5)"/><path d="M 112 238v 7h 7a 7 7, 0, 0, 0, -7 -7" transform="rotate(90,115.5,241.5)"/><path d="M 119 0v 7h 3.5a 3.5 3.5, 0, 0, 0, 0 -7" transform="rotate(0,122.5,3.5)"/><path d="M 119 14v 7h 7a 7 7, 0, 0, 0, -7 -7" transform="rotate(-90,122.5,17.5)"/><path d="M 119 21v 7h 7a 7 7, 0, 0, 0, -7 -7" transform="rotate(180,122.5,24.5)"/><rect x="119" y="35" width="7" height="7" transform="rotate(0,122.5,38.5)"/><circle cx="122.5" cy="59.5" r="3.5" transform="rotate(0,122.5,59.5)"/><path d="M 119 84v 7h 3.5a 3.5 3.5, 0, 0, 0, 0 -7" transform="rotate(-90,122.5,87.5)"/><rect x="119" y="91" width="7" height="7" transform="rotate(0,122.5,94.5)"/><path d="M 119 98v 7h 7a 7 7, 0, 0, 0, -7 -7" transform="rotate(180,122.5,101.5)"/><rect x="119" y="126" width="7" height="7" transform="rotate(0,122.5,129.5)"/><circle cx="122.5" cy="143.5" r="3.5" transform="rotate(0,122.5,143.5)"/><rect x="119" y="154" width="7" height="7" transform="rotate(0,122.5,157.5)"/><path d="M 119 182v 7h 3.5a 3.5 3.5, 0, 0, 0, 0 -7" transform="rotate(-90,122.5,185.5)"/><rect x="119" y="189" width="7" height="7" transform="rotate(0,122.5,192.5)"/><path d="M 119 196v 7h 7a 7 7, 0, 0, 0, -7 -7" transform="rotate(90,122.5,199.5)"/><path d="M 119 224v 7h 3.5a 3.5 3.5, 0, 0, 0, 0 -7" transform="rotate(-90,122.5,227.5)"/><path d="M 119 231v 7h 7a 7 7, 0, 0, 0, -7 -7" transform="rotate(90,122.5,234.5)"/><path d="M 126 7v 7h 3.5a 3.5 3.5, 0, 0, 0, 0 -7" transform="rotate(-90,129.5,10.5)"/><rect x="126" y="14" width="7" height="7" transform="rotate(0,129.5,17.5)"/><path d="M 126 21v 7h 7a 7 7, 0, 0, 0, -7 -7" transform="rotate(90,129.5,24.5)"/><rect x="126" y="35" width="7" height="7" transform="rotate(0,129.5,38.5)"/><rect x="126" y="42" width="7" height="7" transform="rotate(0,129.5,45.5)"/><path d="M 126 49v 7h 7a 7 7, 0, 0, 0, -7 -7" transform="rotate(180,129.5,52.5)"/><path d="M 126 63v 7h 7a 7 7, 0, 0, 0, -7 -7" transform="rotate(-90,129.5,66.5)"/><rect x="126" y="70" width="7" height="7" transform="rotate(0,129.5,73.5)"/><path d="M 126 77v 7h 3.5a 3.5 3.5, 0, 0, 0, 0 -7" transform="rotate(90,129.5,80.5)"/><path d="M 126 98v 7h 7a 7 7, 0, 0, 0, -7 -7" transform="rotate(0,129.5,101.5)"/><path d="M 126 105v 7h 3.5a 3.5 3.5, 0, 0, 0, 0 -7" transform="rotate(90,129.5,108.5)"/><path d="M 126 126v 7h 7a 7 7, 0, 0, 0, -7 -7" transform="rotate(0,129.5,129.5)"/><path d="M 126 133v 7h 3.5a 3.5 3.5, 0, 0, 0, 0 -7" transform="rotate(90,129.5,136.5)"/><path d="M 126 147v 7h 3.5a 3.5 3.5, 0, 0, 0, 0 -7" transform="rotate(-90,129.5,150.5)"/><rect x="126" y="154" width="7" height="7" transform="rotate(0,129.5,157.5)"/><rect x="126" y="161" width="7" height="7" transform="rotate(0,129.5,164.5)"/><path d="M 126 168v 7h 7a 7 7, 0, 0, 0, -7 -7" transform="rotate(180,129.5,171.5)"/><path d="M 126 189v 7h 3.5a 3.5 3.5, 0, 0, 0, 0 -7" transform="rotate(0,129.5,192.5)"/><path d="M 126 203v 7h 7a 7 7, 0, 0, 0, -7 -7" transform="rotate(-90,129.5,206.5)"/><path d="M 126 210v 7h 3.5a 3.5 3.5, 0, 0, 0, 0 -7" transform="rotate(90,129.5,213.5)"/><path d="M 126 238v 7h 3.5a 3.5 3.5, 0, 0, 0, 0 -7" transform="rotate(180,129.5,241.5)"/><path d="M 133 0v 7h 3.5a 3.5 3.5, 0, 0, 0, 0 -7" transform="rotate(180,136.5,3.5)"/><path d="M 133 14v 7h 3.5a 3.5 3.5, 0, 0, 0, 0 -7" transform="rotate(0,136.5,17.5)"/><path d="M 133 35v 7h 3.5a 3.5 3.5, 0, 0, 0, 0 -7" transform="rotate(0,136.5,38.5)"/><path d="M 133 49v 7h 7a 7 7, 0, 0, 0, -7 -7" transform="rotate(0,136.5,52.5)"/><rect x="133" y="56" width="7" height="7" transform="rotate(0,136.5,59.5)"/><rect x="133" y="63" width="7" height="7" transform="rotate(0,136.5,66.5)"/><path d="M 133 70v 7h 7a 7 7, 0, 0, 0, -7 -7" transform="rotate(90,136.5,73.5)"/><path d="M 133 84v 7h 3.5a 3.5 3.5, 0, 0, 0, 0 -7" transform="rotate(-90,136.5,87.5)"/><path d="M 133 91v 7h 3.5a 3.5 3.5, 0, 0, 0, 0 -7" transform="rotate(90,136.5,94.5)"/><path d="M 133 112v 7h 7a 7 7, 0, 0, 0, -7 -7" transform="rotate(-90,136.5,115.5)"/><path d="M 133 119v 7h 7a 7 7, 0, 0, 0, -7 -7" transform="rotate(180,136.5,122.5)"/><circle cx="136.5" cy="143.5" r="3.5" transform="rotate(0,136.5,143.5)"/><path d="M 133 154v 7h 3.5a 3.5 3.5, 0, 0, 0, 0 -7" transform="rotate(0,136.5,157.5)"/><rect x="133" y="168" width="7" height="7" transform="rotate(0,136.5,171.5)"/><circle cx="136.5" cy="185.5" r="3.5" transform="rotate(0,136.5,185.5)"/><rect x="133" y="203" width="7" height="7" transform="rotate(0,136.5,206.5)"/><circle cx="136.5" cy="227.5" r="3.5" transform="rotate(0,136.5,227.5)"/><rect x="133" y="238" width="7" height="7" transform="rotate(0,136.5,241.5)"/><path d="M 140 0v 7h 7a 7 7, 0, 0, 0, -7 -7" transform="rotate(0,143.5,3.5)"/><path d="M 140 7v 7h 7a 7 7, 0, 0, 0, -7 -7" transform="rotate(180,143.5,10.5)"/><path d="M 140 21v 7h 3.5a 3.5 3.5, 0, 0, 0, 0 -7" transform="rotate(180,143.5,24.5)"/><circle cx="143.5" cy="45.5" r="3.5" transform="rotate(0,143.5,45.5)"/><rect x="140" y="56" width="7" height="7" transform="rotate(0,143.5,59.5)"/><rect x="140" y="63" width="7" height="7" transform="rotate(0,143.5,66.5)"/><circle cx="143.5" cy="80.5" r="3.5" transform="rotate(0,143.5,80.5)"/><path d="M 140 98v 7h 3.5a 3.5 3.5, 0, 0, 0, 0 -7" transform="rotate(180,143.5,101.5)"/><rect x="140" y="112" width="7" height="7" transform="rotate(0,143.5,115.5)"/><rect x="140" y="119" width="7" height="7" transform="rotate(0,143.5,122.5)"/><rect x="140" y="126" width="7" height="7" transform="rotate(0,143.5,129.5)"/><path d="M 140 133v 7h 7a 7 7, 0, 0, 0, -7 -7" transform="rotate(180,143.5,136.5)"/><circle cx="143.5" cy="150.5" r="3.5" transform="rotate(0,143.5,150.5)"/><path d="M 140 161v 7h 3.5a 3.5 3.5, 0, 0, 0, 0 -7" transform="rotate(-90,143.5,164.5)"/><rect x="140" y="168" width="7" height="7" transform="rotate(0,143.5,171.5)"/><path d="M 140 189v 7h 3.5a 3.5 3.5, 0, 0, 0, 0 -7" transform="rotate(180,143.5,192.5)"/><rect x="140" y="203" width="7" height="7" transform="rotate(0,143.5,206.5)"/><path d="M 140 210v 7h 3.5a 3.5 3.5, 0, 0, 0, 0 -7" transform="rotate(90,143.5,213.5)"/><path d="M 140 231v 7h 7a 7 7, 0, 0, 0, -7 -7" transform="rotate(-90,143.5,234.5)"/><path d="M 140 238v 7h 7a 7 7, 0, 0, 0, -7 -7" transform="rotate(90,143.5,241.5)"/><rect x="147" y="7" width="7" height="7" transform="rotate(0,150.5,10.5)"/><rect x="147" y="21" width="7" height="7" transform="rotate(0,150.5,24.5)"/><path d="M 147 28v 7h 7a 7 7, 0, 0, 0, -7 -7" transform="rotate(180,150.5,31.5)"/><rect x="147" y="56" width="7" height="7" transform="rotate(0,150.5,59.5)"/><rect x="147" y="63" width="7" height="7" transform="rotate(0,150.5,66.5)"/><path d="M 147 84v 7h 7a 7 7, 0, 0, 0, -7 -7" transform="rotate(-90,150.5,87.5)"/><rect x="147" y="91" width="7" height="7" transform="rotate(0,150.5,94.5)"/><rect x="147" y="98" width="7" height="7" transform="rotate(0,150.5,101.5)"/><rect x="147" y="105" width="7" height="7" transform="rotate(0,150.5,108.5)"/><path d="M 147 112v 7h 7a 7 7, 0, 0, 0, -7 -7" transform="rotate(90,150.5,115.5)"/><rect x="147" y="126" width="7" height="7" transform="rotate(0,150.5,129.5)"/><rect x="147" y="133" width="7" height="7" transform="rotate(0,150.5,136.5)"/><path d="M 147 140v 7h 7a 7 7, 0, 0, 0, -7 -7" transform="rotate(180,150.5,143.5)"/><rect x="147" y="168" width="7" height="7" transform="rotate(0,150.5,171.5)"/><path d="M 147 182v 7h 7a 7 7, 0, 0, 0, -7 -7" transform="rotate(-90,150.5,185.5)"/><rect x="147" y="189" width="7" height="7" transform="rotate(0,150.5,192.5)"/><path d="M 147 203v 7h 3.5a 3.5 3.5, 0, 0, 0, 0 -7" transform="rotate(0,150.5,206.5)"/><path d="M 147 224v 7h 3.5a 3.5 3.5, 0, 0, 0, 0 -7" transform="rotate(-90,150.5,227.5)"/><path d="M 147 231v 7h 7a 7 7, 0, 0, 0, -7 -7" transform="rotate(90,150.5,234.5)"/><rect x="154" y="7" width="7" height="7" transform="rotate(0,157.5,10.5)"/><rect x="154" y="14" width="7" height="7" transform="rotate(0,157.5,17.5)"/><rect x="154" y="21" width="7" height="7" transform="rotate(0,157.5,24.5)"/><path d="M 154 28v 7h 7a 7 7, 0, 0, 0, -7 -7" transform="rotate(90,157.5,31.5)"/><path d="M 154 42v 7h 3.5a 3.5 3.5, 0, 0, 0, 0 -7" transform="rotate(-90,157.5,45.5)"/><rect x="154" y="49" width="7" height="7" transform="rotate(0,157.5,52.5)"/><rect x="154" y="56" width="7" height="7" transform="rotate(0,157.5,59.5)"/><path d="M 154 63v 7h 7a 7 7, 0, 0, 0, -7 -7" transform="rotate(90,157.5,66.5)"/><rect x="154" y="84" width="7" height="7" transform="rotate(0,157.5,87.5)"/><rect x="154" y="105" width="7" height="7" transform="rotate(0,157.5,108.5)"/><path d="M 154 119v 7h 7a 7 7, 0, 0, 0, -7 -7" transform="rotate(-90,157.5,122.5)"/><path d="M 154 126v 7h 7a 7 7, 0, 0, 0, -7 -7" transform="rotate(90,157.5,129.5)"/><path d="M 154 140v 7h 3.5a 3.5 3.5, 0, 0, 0, 0 -7" transform="rotate(0,157.5,143.5)"/><path d="M 154 154v 7h 7a 7 7, 0, 0, 0, -7 -7" transform="rotate(-90,157.5,157.5)"/><rect x="154" y="161" width="7" height="7" transform="rotate(0,157.5,164.5)"/><rect x="154" y="168" width="7" height="7" transform="rotate(0,157.5,171.5)"/><rect x="154" y="175" width="7" height="7" transform="rotate(0,157.5,178.5)"/><rect x="154" y="182" width="7" height="7" transform="rotate(0,157.5,185.5)"/><rect x="154" y="189" width="7" height="7" transform="rotate(0,157.5,192.5)"/><path d="M 154 196v 7h 7a 7 7, 0, 0, 0, -7 -7" transform="rotate(180,157.5,199.5)"/><path d="M 154 210v 7h 3.5a 3.5 3.5, 0, 0, 0, 0 -7" transform="rotate(180,157.5,213.5)"/><path d="M 161 0v 7h 7a 7 7, 0, 0, 0, -7 -7" transform="rotate(-90,164.5,3.5)"/><rect x="161" y="7" width="7" height="7" transform="rotate(0,164.5,10.5)"/><path d="M 161 14v 7h 7a 7 7, 0, 0, 0, -7 -7" transform="rotate(90,164.5,17.5)"/><rect x="161" y="49" width="7" height="7" transform="rotate(0,164.5,52.5)"/><path d="M 161 56v 7h 7a 7 7, 0, 0, 0, -7 -7" transform="rotate(90,164.5,59.5)"/><path d="M 161 77v 7h 3.5a 3.5 3.5, 0, 0, 0, 0 -7" transform="rotate(-90,164.5,80.5)"/><rect x="161" y="84" width="7" height="7" transform="rotate(0,164.5,87.5)"/><rect x="161" y="91" width="7" height="7" transform="rotate(0,164.5,94.5)"/><rect x="161" y="98" width="7" height="7" transform="rotate(0,164.5,101.5)"/><rect x="161" y="105" width="7" height="7" transform="rotate(0,164.5,108.5)"/><rect x="161" y="112" width="7" height="7" transform="rotate(0,164.5,115.5)"/><path d="M 161 119v 7h 7a 7 7, 0, 0, 0, -7 -7" transform="rotate(90,164.5,122.5)"/><path d="M 161 133v 7h 3.5a 3.5 3.5, 0, 0, 0, 0 -7" transform="rotate(180,164.5,136.5)"/><path d="M 161 147v 7h 7a 7 7, 0, 0, 0, -7 -7" transform="rotate(-90,164.5,150.5)"/><rect x="161" y="154" width="7" height="7" transform="rotate(0,164.5,157.5)"/><rect x="161" y="175" width="7" height="7" transform="rotate(0,164.5,178.5)"/><path d="M 161 196v 7h 3.5a 3.5 3.5, 0, 0, 0, 0 -7" transform="rotate(0,164.5,199.5)"/><rect x="161" y="210" width="7" height="7" transform="rotate(0,164.5,213.5)"/><path d="M 161 217v 7h 3.5a 3.5 3.5, 0, 0, 0, 0 -7" transform="rotate(90,164.5,220.5)"/><path d="M 161 238v 7h 7a 7 7, 0, 0, 0, -7 -7" transform="rotate(-90,164.5,241.5)"/><path d="M 161 245v 7h 7a 7 7, 0, 0, 0, -7 -7" transform="rotate(180,164.5,248.5)"/><rect x="168" y="0" width="7" height="7" transform="rotate(0,171.5,3.5)"/><path d="M 168 7v 7h 7a 7 7, 0, 0, 0, -7 -7" transform="rotate(90,171.5,10.5)"/><path d="M 168 35v 7h 7a 7 7, 0, 0, 0, -7 -7" transform="rotate(-90,171.5,38.5)"/><rect x="168" y="42" width="7" height="7" transform="rotate(0,171.5,45.5)"/><rect x="168" y="49" width="7" height="7" transform="rotate(0,171.5,52.5)"/><path d="M 168 63v 7h 3.5a 3.5 3.5, 0, 0, 0, 0 -7" transform="rotate(180,171.5,66.5)"/><rect x="168" y="112" width="7" height="7" transform="rotate(0,171.5,115.5)"/><path d="M 168 133v 7h 3.5a 3.5 3.5, 0, 0, 0, 0 -7" transform="rotate(0,171.5,136.5)"/><path d="M 168 147v 7h 7a 7 7, 0, 0, 0, -7 -7" transform="rotate(0,171.5,150.5)"/><path d="M 168 154v 7h 7a 7 7, 0, 0, 0, -7 -7" transform="rotate(90,171.5,157.5)"/><path d="M 168 168v 7h 3.5a 3.5 3.5, 0, 0, 0, 0 -7" transform="rotate(-90,171.5,171.5)"/><rect x="168" y="175" width="7" height="7" transform="rotate(0,171.5,178.5)"/><path d="M 168 189v 7h 3.5a 3.5 3.5, 0, 0, 0, 0 -7" transform="rotate(180,171.5,192.5)"/><path d="M 168 203v 7h 3.5a 3.5 3.5, 0, 0, 0, 0 -7" transform="rotate(-90,171.5,206.5)"/><path d="M 168 210v 7h 7a 7 7, 0, 0, 0, -7 -7" transform="rotate(90,171.5,213.5)"/><path d="M 168 238v 7h 7a 7 7, 0, 0, 0, -7 -7" transform="rotate(0,171.5,241.5)"/><rect x="168" y="245" width="7" height="7" transform="rotate(0,171.5,248.5)"/><path d="M 168 252v 7h 3.5a 3.5 3.5, 0, 0, 0, 0 -7" transform="rotate(90,171.5,255.5)"/><path d="M 175 0v 7h 3.5a 3.5 3.5, 0, 0, 0, 0 -7" transform="rotate(0,178.5,3.5)"/><path d="M 175 14v 7h 3.5a 3.5 3.5, 0, 0, 0, 0 -7" transform="rotate(180,178.5,17.5)"/><rect x="175" y="35" width="7" height="7" transform="rotate(0,178.5,38.5)"/><path d="M 175 49v 7h 7a 7 7, 0, 0, 0, -7 -7" transform="rotate(0,178.5,52.5)"/><rect x="175" y="56" width="7" height="7" transform="rotate(0,178.5,59.5)"/><rect x="175" y="63" width="7" height="7" transform="rotate(0,178.5,66.5)"/><rect x="175" y="70" width="7" height="7" transform="rotate(0,178.5,73.5)"/><rect x="175" y="77" width="7" height="7" transform="rotate(0,178.5,80.5)"/><rect x="175" y="84" width="7" height="7" transform="rotate(0,178.5,87.5)"/><rect x="175" y="91" width="7" height="7" transform="rotate(0,178.5,94.5)"/><rect x="175" y="98" width="7" height="7" transform="rotate(0,178.5,101.5)"/><rect x="175" y="105" width="7" height="7" transform="rotate(0,178.5,108.5)"/><rect x="175" y="112" width="7" height="7" transform="rotate(0,178.5,115.5)"/><circle cx="178.5" cy="129.5" r="3.5" transform="rotate(0,178.5,129.5)"/><path d="M 175 140v 7h 3.5a 3.5 3.5, 0, 0, 0, 0 -7" transform="rotate(180,178.5,143.5)"/><path d="M 175 175v 7h 7a 7 7, 0, 0, 0, -7 -7" transform="rotate(0,178.5,178.5)"/><rect x="175" y="182" width="7" height="7" transform="rotate(0,178.5,185.5)"/><rect x="175" y="189" width="7" height="7" transform="rotate(0,178.5,192.5)"/><path d="M 175 196v 7h 3.5a 3.5 3.5, 0, 0, 0, 0 -7" transform="rotate(90,178.5,199.5)"/><path d="M 175 224v 7h 3.5a 3.5 3.5, 0, 0, 0, 0 -7" transform="rotate(-90,178.5,227.5)"/><path d="M 175 231v 7h 7a 7 7, 0, 0, 0, -7 -7" transform="rotate(180,178.5,234.5)"/><rect x="182" y="14" width="7" height="7" transform="rotate(0,185.5,17.5)"/><path d="M 182 28v 7h 7a 7 7, 0, 0, 0, -7 -7" transform="rotate(-90,185.5,31.5)"/><rect x="182" y="35" width="7" height="7" transform="rotate(0,185.5,38.5)"/><path d="M 182 42v 7h 3.5a 3.5 3.5, 0, 0, 0, 0 -7" transform="rotate(90,185.5,45.5)"/><rect x="182" y="63" width="7" height="7" transform="rotate(0,185.5,66.5)"/><path d="M 182 70v 7h 7a 7 7, 0, 0, 0, -7 -7" transform="rotate(90,185.5,73.5)"/><rect x="182" y="84" width="7" height="7" transform="rotate(0,185.5,87.5)"/><rect x="182" y="105" width="7" height="7" transform="rotate(0,185.5,108.5)"/><path d="M 182 112v 7h 7a 7 7, 0, 0, 0, -7 -7" transform="rotate(90,185.5,115.5)"/><path d="M 182 140v 7h 3.5a 3.5 3.5, 0, 0, 0, 0 -7" transform="rotate(0,185.5,143.5)"/><path d="M 182 189v 7h 3.5a 3.5 3.5, 0, 0, 0, 0 -7" transform="rotate(0,185.5,192.5)"/><circle cx="185.5" cy="206.5" r="3.5" transform="rotate(0,185.5,206.5)"/><path d="M 182 217v 7h 3.5a 3.5 3.5, 0, 0, 0, 0 -7" transform="rotate(180,185.5,220.5)"/><rect x="182" y="231" width="7" height="7" transform="rotate(0,185.5,234.5)"/><path d="M 182 245v 7h 3.5a 3.5 3.5, 0, 0, 0, 0 -7" transform="rotate(180,185.5,248.5)"/><path d="M 189 14v 7h 3.5a 3.5 3.5, 0, 0, 0, 0 -7" transform="rotate(0,192.5,17.5)"/><path d="M 189 28v 7h 3.5a 3.5 3.5, 0, 0, 0, 0 -7" transform="rotate(0,192.5,31.5)"/><path d="M 189 49v 7h 3.5a 3.5 3.5, 0, 0, 0, 0 -7" transform="rotate(-90,192.5,52.5)"/><rect x="189" y="56" width="7" height="7" transform="rotate(0,192.5,59.5)"/><rect x="189" y="63" width="7" height="7" transform="rotate(0,192.5,66.5)"/><rect x="189" y="84" width="7" height="7" transform="rotate(0,192.5,87.5)"/><rect x="189" y="91" width="7" height="7" transform="rotate(0,192.5,94.5)"/><rect x="189" y="98" width="7" height="7" transform="rotate(0,192.5,101.5)"/><path d="M 189 105v 7h 7a 7 7, 0, 0, 0, -7 -7" transform="rotate(90,192.5,108.5)"/><path d="M 189 119v 7h 3.5a 3.5 3.5, 0, 0, 0, 0 -7" transform="rotate(180,192.5,122.5)"/><path d="M 189 147v 7h 3.5a 3.5 3.5, 0, 0, 0, 0 -7" transform="rotate(-90,192.5,150.5)"/><path d="M 189 154v 7h 3.5a 3.5 3.5, 0, 0, 0, 0 -7" transform="rotate(90,192.5,157.5)"/><path d="M 189 168v 7h 3.5a 3.5 3.5, 0, 0, 0, 0 -7" transform="rotate(180,192.5,171.5)"/><path d="M 189 210v 7h 7a 7 7, 0, 0, 0, -7 -7" transform="rotate(-90,192.5,213.5)"/><rect x="189" y="217" width="7" height="7" transform="rotate(0,192.5,220.5)"/><rect x="189" y="224" width="7" height="7" transform="rotate(0,192.5,227.5)"/><rect x="189" y="231" width="7" height="7" transform="rotate(0,192.5,234.5)"/><rect x="189" y="238" width="7" height="7" transform="rotate(0,192.5,241.5)"/><rect x="189" y="245" width="7" height="7" transform="rotate(0,192.5,248.5)"/><path d="M 189 252v 7h 7a 7 7, 0, 0, 0, -7 -7" transform="rotate(180,192.5,255.5)"/><path d="M 196 0v 7h 3.5a 3.5 3.5, 0, 0, 0, 0 -7" transform="rotate(-90,199.5,3.5)"/><path d="M 196 7v 7h 3.5a 3.5 3.5, 0, 0, 0, 0 -7" transform="rotate(90,199.5,10.5)"/><circle cx="199.5" cy="24.5" r="3.5" transform="rotate(0,199.5,24.5)"/><circle cx="199.5" cy="45.5" r="3.5" transform="rotate(0,199.5,45.5)"/><path d="M 196 63v 7h 7a 7 7, 0, 0, 0, -7 -7" transform="rotate(0,199.5,66.5)"/><path d="M 196 70v 7h 3.5a 3.5 3.5, 0, 0, 0, 0 -7" transform="rotate(90,199.5,73.5)"/><path d="M 196 84v 7h 3.5a 3.5 3.5, 0, 0, 0, 0 -7" transform="rotate(0,199.5,87.5)"/><rect x="196" y="119" width="7" height="7" transform="rotate(0,199.5,122.5)"/><path d="M 196 126v 7h 7a 7 7, 0, 0, 0, -7 -7" transform="rotate(180,199.5,129.5)"/><path d="M 196 161v 7h 7a 7 7, 0, 0, 0, -7 -7" transform="rotate(-90,199.5,164.5)"/><path d="M 196 168v 7h 7a 7 7, 0, 0, 0, -7 -7" transform="rotate(90,199.5,171.5)"/><path d="M 196 189v 7h 3.5a 3.5 3.5, 0, 0, 0, 0 -7" transform="rotate(-90,199.5,192.5)"/><rect x="196" y="196" width="7" height="7" transform="rotate(0,199.5,199.5)"/><rect x="196" y="203" width="7" height="7" transform="rotate(0,199.5,206.5)"/><rect x="196" y="210" width="7" height="7" transform="rotate(0,199.5,213.5)"/><rect x="196" y="217" width="7" height="7" transform="rotate(0,199.5,220.5)"/><rect x="196" y="224" width="7" height="7" transform="rotate(0,199.5,227.5)"/><path d="M 196 238v 7h 3.5a 3.5 3.5, 0, 0, 0, 0 -7" transform="rotate(0,199.5,241.5)"/><path d="M 196 252v 7h 3.5a 3.5 3.5, 0, 0, 0, 0 -7" transform="rotate(0,199.5,255.5)"/><path d="M 203 56v 7h 3.5a 3.5 3.5, 0, 0, 0, 0 -7" transform="rotate(180,206.5,59.5)"/><path d="M 203 77v 7h 3.5a 3.5 3.5, 0, 0, 0, 0 -7" transform="rotate(180,206.5,80.5)"/><path d="M 203 98v 7h 7a 7 7, 0, 0, 0, -7 -7" transform="rotate(-90,206.5,101.5)"/><rect x="203" y="105" width="7" height="7" transform="rotate(0,206.5,108.5)"/><rect x="203" y="112" width="7" height="7" transform="rotate(0,206.5,115.5)"/><rect x="203" y="119" width="7" height="7" transform="rotate(0,206.5,122.5)"/><rect x="203" y="126" width="7" height="7" transform="rotate(0,206.5,129.5)"/><rect x="203" y="133" width="7" height="7" transform="rotate(0,206.5,136.5)"/><rect x="203" y="140" width="7" height="7" transform="rotate(0,206.5,143.5)"/><path d="M 203 147v 7h 3.5a 3.5 3.5, 0, 0, 0, 0 -7" transform="rotate(90,206.5,150.5)"/><rect x="203" y="161" width="7" height="7" transform="rotate(0,206.5,164.5)"/><path d="M 203 175v 7h 3.5a 3.5 3.5, 0, 0, 0, 0 -7" transform="rotate(-90,206.5,178.5)"/><path d="M 203 182v 7h 3.5a 3.5 3.5, 0, 0, 0, 0 -7" transform="rotate(90,206.5,185.5)"/><rect x="203" y="196" width="7" height="7" transform="rotate(0,206.5,199.5)"/><rect x="203" y="224" width="7" height="7" transform="rotate(0,206.5,227.5)"/><path d="M 203 231v 7h 7a 7 7, 0, 0, 0, -7 -7" transform="rotate(180,206.5,234.5)"/><circle cx="206.5" cy="248.5" r="3.5" transform="rotate(0,206.5,248.5)"/><rect x="210" y="56" width="7" height="7" transform="rotate(0,213.5,59.5)"/><rect x="210" y="63" width="7" height="7" transform="rotate(0,213.5,66.5)"/><rect x="210" y="70" width="7" height="7" transform="rotate(0,213.5,73.5)"/><rect x="210" y="77" width="7" height="7" transform="rotate(0,213.5,80.5)"/><rect x="210" y="98" width="7" height="7" transform="rotate(0,213.5,101.5)"/><rect x="210" y="119" width="7" height="7" transform="rotate(0,213.5,122.5)"/><path d="M 210 126v 7h 7a 7 7, 0, 0, 0, -7 -7" transform="rotate(90,213.5,129.5)"/><path d="M 210 161v 7h 7a 7 7, 0, 0, 0, -7 -7" transform="rotate(0,213.5,164.5)"/><path d="M 210 168v 7h 7a 7 7, 0, 0, 0, -7 -7" transform="rotate(180,213.5,171.5)"/><rect x="210" y="196" width="7" height="7" transform="rotate(0,213.5,199.5)"/><circle cx="213.5" cy="213.5" r="3.5" transform="rotate(0,213.5,213.5)"/><rect x="210" y="224" width="7" height="7" transform="rotate(0,213.5,227.5)"/><rect x="210" y="231" width="7" height="7" transform="rotate(0,213.5,234.5)"/><path d="M 210 238v 7h 7a 7 7, 0, 0, 0, -7 -7" transform="rotate(180,213.5,241.5)"/><rect x="217" y="56" width="7" height="7" transform="rotate(0,220.5,59.5)"/><rect x="217" y="63" width="7" height="7" transform="rotate(0,220.5,66.5)"/><path d="M 217 77v 7h 3.5a 3.5 3.5, 0, 0, 0, 0 -7" transform="rotate(0,220.5,80.5)"/><path d="M 217 91v 7h 7a 7 7, 0, 0, 0, -7 -7" transform="rotate(-90,220.5,94.5)"/><path d="M 217 98v 7h 7a 7 7, 0, 0, 0, -7 -7" transform="rotate(90,220.5,101.5)"/><path d="M 217 112v 7h 3.5a 3.5 3.5, 0, 0, 0, 0 -7" transform="rotate(-90,220.5,115.5)"/><path d="M 217 119v 7h 7a 7 7, 0, 0, 0, -7 -7" transform="rotate(90,220.5,122.5)"/><circle cx="220.5" cy="136.5" r="3.5" transform="rotate(0,220.5,136.5)"/><path d="M 217 147v 7h 7a 7 7, 0, 0, 0, -7 -7" transform="rotate(-90,220.5,150.5)"/><path d="M 217 154v 7h 7a 7 7, 0, 0, 0, -7 -7" transform="rotate(180,220.5,157.5)"/><path d="M 217 168v 7h 3.5a 3.5 3.5, 0, 0, 0, 0 -7" transform="rotate(0,220.5,171.5)"/><circle cx="220.5" cy="185.5" r="3.5" transform="rotate(0,220.5,185.5)"/><rect x="217" y="196" width="7" height="7" transform="rotate(0,220.5,199.5)"/><rect x="217" y="224" width="7" height="7" transform="rotate(0,220.5,227.5)"/><rect x="217" y="238" width="7" height="7" transform="rotate(0,220.5,241.5)"/><path d="M 224 56v 7h 7a 7 7, 0, 0, 0, -7 -7" transform="rotate(0,227.5,59.5)"/><path d="M 224 63v 7h 7a 7 7, 0, 0, 0, -7 -7" transform="rotate(90,227.5,66.5)"/><path d="M 224 84v 7h 3.5a 3.5 3.5, 0, 0, 0, 0 -7" transform="rotate(-90,227.5,87.5)"/><rect x="224" y="91" width="7" height="7" transform="rotate(0,227.5,94.5)"/><path d="M 224 105v 7h 3.5a 3.5 3.5, 0, 0, 0, 0 -7" transform="rotate(180,227.5,108.5)"/><path d="M 224 126v 7h 3.5a 3.5 3.5, 0, 0, 0, 0 -7" transform="rotate(180,227.5,129.5)"/><rect x="224" y="147" width="7" height="7" transform="rotate(0,227.5,150.5)"/><rect x="224" y="154" width="7" height="7" transform="rotate(0,227.5,157.5)"/><path d="M 224 161v 7h 3.5a 3.5 3.5, 0, 0, 0, 0 -7" transform="rotate(90,227.5,164.5)"/><path d="M 224 196v 7h 7a 7 7, 0, 0, 0, -7 -7" transform="rotate(0,227.5,199.5)"/><rect x="224" y="203" width="7" height="7" transform="rotate(0,227.5,206.5)"/><rect x="224" y="210" width="7" height="7" transform="rotate(0,227.5,213.5)"/><rect x="224" y="217" width="7" height="7" transform="rotate(0,227.5,220.5)"/><rect x="224" y="224" width="7" height="7" transform="rotate(0,227.5,227.5)"/><rect x="224" y="231" width="7" height="7" transform="rotate(0,227.5,234.5)"/><path d="M 224 238v 7h 7a 7 7, 0, 0, 0, -7 -7" transform="rotate(90,227.5,241.5)"/><circle cx="234.5" cy="73.5" r="3.5" transform="rotate(0,234.5,73.5)"/><rect x="231" y="91" width="7" height="7" transform="rotate(0,234.5,94.5)"/><rect x="231" y="105" width="7" height="7" transform="rotate(0,234.5,108.5)"/><path d="M 231 126v 7h 3.5a 3.5 3.5, 0, 0, 0, 0 -7" transform="rotate(0,234.5,129.5)"/><rect x="231" y="147" width="7" height="7" transform="rotate(0,234.5,150.5)"/><path d="M 231 168v 7h 3.5a 3.5 3.5, 0, 0, 0, 0 -7" transform="rotate(180,234.5,171.5)"/><circle cx="234.5" cy="192.5" r="3.5" transform="rotate(0,234.5,192.5)"/><rect x="231" y="210" width="7" height="7" transform="rotate(0,234.5,213.5)"/><path d="M 238 63v 7h 3.5a 3.5 3.5, 0, 0, 0, 0 -7" transform="rotate(180,241.5,66.5)"/><path d="M 238 77v 7h 3.5a 3.5 3.5, 0, 0, 0, 0 -7" transform="rotate(180,241.5,80.5)"/><path d="M 238 91v 7h 3.5a 3.5 3.5, 0, 0, 0, 0 -7" transform="rotate(0,241.5,94.5)"/><path d="M 238 105v 7h 7a 7 7, 0, 0, 0, -7 -7" transform="rotate(0,241.5,108.5)"/><rect x="238" y="112" width="7" height="7" transform="rotate(0,241.5,115.5)"/><path d="M 238 119v 7h 3.5a 3.5 3.5, 0, 0, 0, 0 -7" transform="rotate(90,241.5,122.5)"/><circle cx="241.5" cy="136.5" r="3.5" transform="rotate(0,241.5,136.5)"/><rect x="238" y="147" width="7" height="7" transform="rotate(0,241.5,150.5)"/><rect x="238" y="154" width="7" height="7" transform="rotate(0,241.5,157.5)"/><rect x="238" y="161" width="7" height="7" transform="rotate(0,241.5,164.5)"/><rect x="238" y="168" width="7" height="7" transform="rotate(0,241.5,171.5)"/><rect x="238" y="175" width="7" height="7" transform="rotate(0,241.5,178.5)"/><path d="M 238 182v 7h 7a 7 7, 0, 0, 0, -7 -7" transform="rotate(180,241.5,185.5)"/><circle cx="241.5" cy="199.5" r="3.5" transform="rotate(0,241.5,199.5)"/><rect x="238" y="210" width="7" height="7" transform="rotate(0,241.5,213.5)"/><path d="M 238 217v 7h 7a 7 7, 0, 0, 0, -7 -7" transform="rotate(180,241.5,220.5)"/><path d="M 238 245v 7h 3.5a 3.5 3.5, 0, 0, 0, 0 -7" transform="rotate(180,241.5,248.5)"/><rect x="245" y="63" width="7" height="7" transform="rotate(0,248.5,66.5)"/><rect x="245" y="77" width="7" height="7" transform="rotate(0,248.5,80.5)"/><circle cx="248.5" cy="101.5" r="3.5" transform="rotate(0,248.5,101.5)"/><path d="M 245 112v 7h 3.5a 3.5 3.5, 0, 0, 0, 0 -7" transform="rotate(0,248.5,115.5)"/><rect x="245" y="147" width="7" height="7" transform="rotate(0,248.5,150.5)"/><path d="M 245 161v 7h 3.5a 3.5 3.5, 0, 0, 0, 0 -7" transform="rotate(0,248.5,164.5)"/><rect x="245" y="182" width="7" height="7" transform="rotate(0,248.5,185.5)"/><path d="M 245 189v 7h 7a 7 7, 0, 0, 0, -7 -7" transform="rotate(180,248.5,192.5)"/><path d="M 245 210v 7h 7a 7 7, 0, 0, 0, -7 -7" transform="rotate(0,248.5,213.5)"/><rect x="245" y="217" width="7" height="7" transform="rotate(0,248.5,220.5)"/><path d="M 245 238v 7h 7a 7 7, 0, 0, 0, -7 -7" transform="rotate(-90,248.5,241.5)"/><rect x="245" y="245" width="7" height="7" transform="rotate(0,248.5,248.5)"/><path d="M 252 63v 7h 7a 7 7, 0, 0, 0, -7 -7" transform="rotate(0,255.5,66.5)"/><rect x="252" y="70" width="7" height="7" transform="rotate(0,255.5,73.5)"/><rect x="252" y="77" width="7" height="7" transform="rotate(0,255.5,80.5)"/><path d="M 252 84v 7h 3.5a 3.5 3.5, 0, 0, 0, 0 -7" transform="rotate(90,255.5,87.5)"/><circle cx="255.5" cy="108.5" r="3.5" transform="rotate(0,255.5,108.5)"/><path d="M 252 126v 7h 3.5a 3.5 3.5, 0, 0, 0, 0 -7" transform="rotate(-90,255.5,129.5)"/><rect x="252" y="133" width="7" height="7" transform="rotate(0,255.5,136.5)"/><rect x="252" y="140" width="7" height="7" transform="rotate(0,255.5,143.5)"/><path d="M 252 147v 7h 7a 7 7, 0, 0, 0, -7 -7" transform="rotate(90,255.5,150.5)"/><circle cx="255.5" cy="171.5" r="3.5" transform="rotate(0,255.5,171.5)"/><path d="M 252 182v 7h 7a 7 7, 0, 0, 0, -7 -7" transform="rotate(0,255.5,185.5)"/><path d="M 252 189v 7h 7a 7 7, 0, 0, 0, -7 -7" transform="rotate(90,255.5,192.5)"/><circle cx="255.5" cy="206.5" r="3.5" transform="rotate(0,255.5,206.5)"/><path d="M 252 217v 7h 3.5a 3.5 3.5, 0, 0, 0, 0 -7" transform="rotate(0,255.5,220.5)"/><path d="M 252 238v 7h 7a 7 7, 0, 0, 0, -7 -7" transform="rotate(0,255.5,241.5)"/><rect x="252" y="245" width="7" height="7" transform="rotate(0,255.5,248.5)"/><path d="M 252 252v 7h 3.5a 3.5 3.5, 0, 0, 0, 0 -7" transform="rotate(90,255.5,255.5)"/></clipPath><clipPath id="clip-path-corners-square-color-0-0"><path clip-rule="evenodd" d="M 0 17.5v 14a 17.5 17.5, 0, 0, 0, 17.5 17.5h 14a 17.5 17.5, 0, 0, 0, 17.5 -17.5v -14a 17.5 17.5, 0, 0, 0, -17.5 -17.5h -14a 17.5 17.5, 0, 0, 0, -17.5 17.5M 17.5 7h 14a 10.5 10.5, 0, 0, 1, 10.5 10.5v 14a 10.5 10.5, 0, 0, 1, -10.5 10.5h -14a 10.5 10.5, 0, 0, 1, -10.5 -10.5v -14a 10.5 10.5, 0, 0, 1, 10.5 -10.5" transform="rotate(0,24.5,24.5)"/></clipPath><clipPath id="clip-path-corners-dot-color-0-0"><circle cx="24.5" cy="24.5" r="10.5" transform="rotate(0,24.5,24.5)"/></clipPath><clipPath id="clip-path-corners-square-color-1-0"><path clip-rule="evenodd" d="M 210 17.5v 14a 17.5 17.5, 0, 0, 0, 17.5 17.5h 14a 17.5 17.5, 0, 0, 0, 17.5 -17.5v -14a 17.5 17.5, 0, 0, 0, -17.5 -17.5h -14a 17.5 17.5, 0, 0, 0, -17.5 17.5M 227.5 7h 14a 10.5 10.5, 0, 0, 1, 10.5 10.5v 14a 10.5 10.5, 0, 0, 1, -10.5 10.5h -14a 10.5 10.5, 0, 0, 1, -10.5 -10.5v -14a 10.5 10.5, 0, 0, 1, 10.5 -10.5" transform="rotate(90,234.5,24.5)"/></clipPath><clipPath id="clip-path-corners-dot-color-1-0"><circle cx="234.5" cy="24.5" r="10.5" transform="rotate(90,234.5,24.5)"/></clipPath><clipPath id="clip-path-corners-square-color-0-1"><path clip-rule="evenodd" d="M 0 227.5v 14a 17.5 17.5, 0, 0, 0, 17.5 17.5h 14a 17.5 17.5, 0, 0, 0, 17.5 -17.5v -14a 17.5 17.5, 0, 0, 0, -17.5 -17.5h -14a 17.5 17.5, 0, 0, 0, -17.5 17.5M 17.5 217h 14a 10.5 10.5, 0, 0, 1, 10.5 10.5v 14a 10.5 10.5, 0, 0, 1, -10.5 10.5h -14a 10.5 10.5, 0, 0, 1, -10.5 -10.5v -14a 10.5 10.5, 0, 0, 1, 10.5 -10.5" transform="rotate(-90,24.5,234.5)"/></clipPath><clipPath id="clip-path-corners-dot-color-0-1"><circle cx="24.5" cy="234.5" r="10.5" transform="rotate(-90,24.5,234.5)"/></clipPath></defs><rect xmlns="http://www.w3.org/2000/svg" x="0" y="0" height="260" width="260" clip-path="url('#clip-path-background-color')" fill="#ffffff"/><rect xmlns="http://www.w3.org/2000/svg" x="0" y="0" height="260" width="260" clip-path="url('#clip-path-dot-color')" fill="url(#header-gradient)"/><rect xmlns="http://www.w3.org/2000/svg" x="0" y="0" height="49" width="49" clip-path="url('#clip-path-corners-square-color-0-0')" fill="url(#header-gradient)"/><rect xmlns="http://www.w3.org/2000/svg" x="14" y="14" height="21" width="21" clip-path="url('#clip-path-corners-dot-color-0-0')" fill="url(#header-gradient)"/><rect xmlns="http://www.w3.org/2000/svg" x="210" y="0" height="49" width="49" clip-path="url('#clip-path-corners-square-color-1-0')" fill="url(#header-gradient)"/><rect xmlns="http://www.w3.org/2000/svg" x="224" y="14" height="21" width="21" clip-path="url('#clip-path-corners-dot-color-1-0')" fill="url(#header-gradient)"/><rect xmlns="http://www.w3.org/2000/svg" x="0" y="210" height="49" width="49" clip-path="url('#clip-path-corners-square-color-0-1')" fill="url(#header-gradient)"/><rect xmlns="http://www.w3.org/2000/svg" x="14" y="224" height="21" width="21" clip-path="url('#clip-path-corners-dot-color-0-1')" fill="url(#header-gradient)"/></g>
</svg>