<?xml version="1.0" encoding="utf-8"?><!-- Uploaded to: SVG Repo, www.svgrepo.com, Generator: SVG Repo Mixer Tools -->
<svg fill="#6739b7" width="800px" height="800px" viewBox="0 0 24 24" id="contact-book" data-name="Flat Color" xmlns="http://www.w3.org/2000/svg" class="icon flat-color">
  <g class="icon-anim" style="transform-origin: 50% 50%; transform-box: fill-box;">
  <animate attributeName="opacity" values="1;0.45;1" dur="1.6s" repeatCount="indefinite" />
  <animateTransform attributeName="transform" type="scale" values="1;1.08;1" dur="1.6s" repeatCount="indefinite" />
<path id="secondary" d="M22,13v2a1,1,0,0,1-1,1H19a1,1,0,0,1-1-1V13a1,1,0,0,1,1-1h2A1,1,0,0,1,22,13ZM21,6H19a1,1,0,0,0-1,1V9a1,1,0,0,0,1,1h2a1,1,0,0,0,1-1V7A1,1,0,0,0,21,6Z" style="fill: #ffd700;"></path><rect id="primary" x="2" y="2" width="18" height="20" rx="2" style="fill: #6739b7;"></rect><path id="secondary-2" data-name="secondary" d="M13.4,11.8A3,3,0,0,0,14,10a3,3,0,0,0-6,0,3,3,0,0,0,.6,1.8A4,4,0,0,0,7,15v1a1,1,0,0,0,1,1h6a1,1,0,0,0,1-1V15A4,4,0,0,0,13.4,11.8Z" style="fill: #ffd700;"></path>
  </g>
</svg>
