<?xml version="1.0" encoding="utf-8"?><!-- Uploaded to: SVG Repo, www.svgrepo.com, Generator: SVG Repo Mixer Tools -->
<svg fill="#000000" width="800px" height="800px" viewBox="0 0 24 24" id="email-file" data-name="Flat Color" xmlns="http://www.w3.org/2000/svg" class="icon flat-color"><path id="secondary" d="M18.71,4.29l-2-2A1,1,0,0,0,16,2H7A2,2,0,0,0,5,4v7a1,1,0,0,0,.45.83l5.44,3.63h0a2,2,0,0,0,2.22,0l5.44-3.63A1,1,0,0,0,19,11V5A1,1,0,0,0,18.71,4.29Z" style="fill: rgb(44, 169, 188);"></path><path id="primary" d="M22,10.87V20a2,2,0,0,1-2,2H4a2,2,0,0,1-2-2V10.87A2,2,0,0,1,5.11,9.2L12,13.8l6.89-4.6A2,2,0,0,1,22,10.87ZM16,4a1,1,0,0,0,1,1h2a1,1,0,0,0-.28-.71l-2-2A1,1,0,0,0,16,2Z" style="fill: rgb(0, 0, 0);"></path></svg>